<?xml version="1.0" standalone="no"?>
<!DOCTYPE svg PUBLIC "-//W3C//DTD SVG 20010904//EN"
 "http://www.w3.org/TR/2001/REC-SVG-20010904/DTD/svg10.dtd">
<svg version="1.0" xmlns="http://www.w3.org/2000/svg"
 width="1200.000000pt" height="1200.000000pt" viewBox="0 0 1200.000000 1200.000000"
 preserveAspectRatio="xMidYMid meet">

<g transform="translate(0.000000,1200.000000) scale(0.100000,-0.100000)"
fill="#000000" stroke="none">
<path d="M5635 7653 c-39 -36 -116 -105 -172 -154 l-103 -90 0 70 0 71 -95 0
-95 0 0 -157 -1 -158 -123 -110 -124 -110 60 -67 60 -68 69 61 69 61 0 -461 0
-461 109 0 110 0 6 43 c4 23 5 58 4 77 -1 19 -2 113 -1 208 l2 172 105 0 105
0 2 -172 c1 -95 0 -189 -1 -208 -1 -19 0 -54 4 -77 l6 -43 300 0 299 0 0 289
0 289 60 -15 59 -15 -6 -62 c-16 -134 -29 -111 177 -294 214 -189 224 -197
243 -185 24 13 317 346 317 360 0 17 -397 367 -421 371 -21 4 -252 -54 -281
-69 -12 -7 -18 -22 -18 -45 0 -40 7 -39 -92 -13 l-38 10 0 145 0 146 63 -56
c34 -31 65 -56 68 -56 4 0 32 29 62 63 l56 64 -52 50 c-29 27 -203 187 -387
355 l-335 305 -70 -64z m-15 -757 l0 -114 -47 3 c-27 2 -74 4 -105 4 l-58 1 0
110 0 110 105 0 105 0 0 -114z m380 0 l0 -114 -47 3 c-27 2 -74 4 -105 4 l-58
1 0 110 0 110 105 0 105 0 0 -114z m815 -302 c91 -81 164 -151 163 -156 -2 -5
-54 -67 -117 -138 l-113 -129 -170 151 -170 151 7 66 c4 36 8 67 8 68 8 7 57
-12 57 -23 0 -22 47 -47 75 -40 51 13 58 86 10 108 -18 8 -32 8 -54 -2 -40
-16 -81 -6 -81 20 0 14 10 22 38 29 20 5 62 16 92 25 30 8 63 15 72 15 9 1 91
-65 183 -145z"/>
<path d="M7400 5935 l0 -95 1425 0 1425 0 0 95 0 95 -1425 0 -1425 0 0 -95z"/>
<path d="M1750 5915 l0 -95 1425 0 1425 0 0 95 0 95 -1425 0 -1425 0 0 -95z"/>
<path d="M4000 4815 l0 -535 85 0 85 0 0 535 0 535 -85 0 -85 0 0 -535z"/>
<path d="M7450 4815 l0 -535 85 0 85 0 0 535 0 535 -85 0 -85 0 0 -535z"/>
<path d="M4447 5233 c-3 -5 -13 -54 -23 -111 -20 -112 -14 -104 -97 -117 l-38
-6 3 -52 3 -52 53 -3 52 -3 0 -240 c0 -264 4 -285 59 -332 42 -35 103 -51 170
-43 55 7 133 36 144 53 4 6 -7 31 -24 58 -25 40 -33 46 -52 40 -12 -4 -38 -9
-58 -12 -65 -9 -69 7 -69 259 l0 218 95 0 95 0 0 65 0 65 -95 0 -95 0 0 110 0
110 -59 0 c-33 0 -62 -3 -64 -7z"/>
<path d="M2274 5011 c-22 -10 -59 -40 -81 -66 l-41 -48 -7 49 c-4 27 -12 55
-17 62 -7 7 -35 12 -74 12 l-64 0 0 -370 0 -370 85 0 85 0 0 228 c0 217 1 229
23 267 12 22 38 50 57 63 29 20 45 23 98 20 76 -4 79 0 83 91 2 56 0 65 -17
72 -33 13 -88 9 -130 -10z"/>
<path d="M2727 5020 c-65 -17 -133 -58 -175 -106 -153 -173 -101 -503 96 -603
131 -67 330 -44 446 52 l30 24 -30 41 c-35 50 -51 52 -136 12 -153 -73 -288
-12 -317 143 l-8 47 237 0 c200 0 240 2 250 15 9 11 11 37 8 85 -9 128 -77
230 -183 275 -48 20 -165 28 -218 15z m172 -141 c44 -24 58 -44 70 -99 l9 -40
-169 0 c-129 0 -169 3 -169 13 1 47 59 121 110 140 36 13 113 6 149 -14z"/>
<path d="M3445 5017 c-58 -15 -128 -49 -168 -81 l-29 -23 26 -42 c33 -51 60
-53 141 -11 117 61 212 33 234 -71 19 -88 22 -85 -73 -93 -163 -13 -284 -63
-332 -136 -23 -35 -26 -47 -22 -108 6 -121 72 -177 208 -177 83 0 122 12 192
61 47 34 58 34 58 2 0 -35 36 -58 90 -58 l50 0 0 269 c0 177 -4 280 -12 302
-36 106 -121 168 -241 175 -40 2 -94 -2 -122 -9z m215 -486 c0 -55 -3 -61 -32
-87 -44 -36 -89 -54 -138 -54 -80 0 -126 47 -104 108 19 53 107 90 217 91 l57
1 0 -59z"/>
<path d="M5091 5015 c-100 -28 -172 -91 -218 -190 -26 -55 -28 -70 -28 -175 0
-106 3 -120 29 -178 37 -79 114 -153 188 -179 37 -12 81 -18 143 -18 77 1 99
5 152 29 129 59 203 185 203 346 0 218 -133 365 -338 376 -50 3 -96 -1 -131
-11z m176 -136 c73 -27 113 -108 113 -229 0 -157 -63 -240 -183 -240 -66 1
-122 31 -149 82 -20 38 -23 57 -23 158 0 103 2 119 24 157 40 70 138 103 218
72z"/>
<path d="M5993 5019 c-18 -5 -53 -33 -82 -64 l-50 -56 -6 38 c-13 79 -17 83
-90 83 l-65 0 0 -370 0 -370 85 0 85 0 0 230 c0 252 1 260 60 315 29 27 38 30
107 32 41 1 77 4 80 7 3 3 8 35 11 72 4 57 2 69 -13 81 -21 15 -74 16 -122 2z"/>
<path d="M6961 5015 c-69 -19 -109 -45 -156 -96 -73 -81 -106 -211 -85 -341
14 -94 38 -146 95 -207 67 -72 128 -96 240 -95 102 0 171 24 238 84 l37 32
-31 39 c-36 46 -56 48 -110 12 -61 -40 -143 -44 -203 -9 -67 39 -91 95 -91
216 0 82 3 102 25 145 47 92 151 120 258 70 30 -14 60 -25 68 -25 8 0 27 19
44 42 29 39 29 42 13 60 -9 10 -44 32 -78 49 -77 38 -181 47 -264 24z"/>
<path d="M8011 5015 c-100 -28 -172 -91 -218 -190 -26 -55 -28 -70 -28 -175 0
-106 3 -120 29 -178 37 -79 114 -153 188 -179 37 -12 81 -18 143 -18 77 1 99
5 152 29 129 59 203 185 203 346 0 218 -133 365 -338 376 -50 3 -96 -1 -131
-11z m176 -136 c73 -27 113 -108 113 -229 0 -157 -63 -240 -183 -240 -66 1
-122 31 -149 82 -20 38 -23 57 -23 158 0 103 2 119 24 157 40 70 138 103 218
72z"/>
<path d="M8923 5016 c-23 -7 -64 -30 -91 -50 -52 -38 -62 -35 -62 14 0 27 -30
40 -94 40 l-56 0 0 -370 0 -370 85 0 85 0 0 264 0 264 33 28 c62 52 142 69
197 41 55 -27 60 -58 60 -339 l0 -258 85 0 85 0 0 274 c0 296 -4 325 -56 393
-52 68 -177 100 -271 69z"/>
<path d="M9639 5017 c-179 -51 -275 -214 -249 -423 23 -181 140 -300 316 -320
103 -12 266 37 320 97 16 18 15 21 -11 59 -33 48 -53 50 -124 14 -55 -29 -128
-40 -186 -30 -71 14 -145 112 -145 193 l0 23 234 0 c196 0 236 2 246 15 18 22
8 150 -17 206 -48 107 -139 167 -265 175 -43 2 -92 -1 -119 -9z m177 -133 c37
-18 68 -62 79 -111 l7 -33 -172 0 -172 0 7 28 c10 44 50 97 86 115 43 21 121
22 165 1z"/>
<path d="M6210 4715 l0 -75 185 0 185 0 0 75 0 75 -185 0 -185 0 0 -75z"/>
</g>
</svg>
